<svg t="1606634863277" class="icon" viewBox="0 0 1024 1024" version="1.1" xmlns="http://www.w3.org/2000/svg" p-id="7386" width="200" height="200" xmlns:xlink="http://www.w3.org/1999/xlink">
	<defs>
		<style type="text/css"/>
	</defs>
	<path d="M918.5 646l35.4 35.4-275.8 275.7-148.5-148.5 35.4-35.4 113.1 113.1L918.5 646zM64 112v800h447v-50H114V162h796v417h50V112H64z m247.1 230.3L169.6 510.8 311 679.3l38.3-32.1-114.4-136.3 114.5-136.4-38.3-32.2z m264.6-78.5L401.3 743.1l47 17.1L622.7 281l-47-17.2zM713 342.5l-38.3 32.1L789.2 511 674.7 647.4l38.3 32.1L854.4 511 713 342.5z" p-id="7387" fill="#9eccab"/>
</svg>